<svg width="19" height="18" viewBox="0 0 19 18" fill="none" xmlns="http://www.w3.org/2000/svg">
<g clip-path="url(#clip0_1561_25582)">
<path d="M11.8628 3.87435V0.642687C11.8629 0.287631 12.1508 -0.00011297 12.5058 3.32727e-08C12.6879 3.7701e-05 12.8614 0.0773319 12.9833 0.212597L18.7691 6.64123C18.9806 6.87688 18.9891 7.23149 18.789 7.47697L13.0032 14.5484C12.7784 14.8232 12.3734 14.8638 12.0986 14.639C11.9497 14.5172 11.8632 14.3351 11.8628 14.1428V10.9394C6.78415 11.1046 3.61486 13.2756 2.18638 17.5609C2.09877 17.8231 1.85336 17.9999 1.57695 18C1.5423 18.0001 1.50764 17.9973 1.47344 17.9916C1.16246 17.9409 0.934078 17.6722 0.934078 17.3571C0.934115 9.78675 5.49135 4.22534 11.8628 3.87435Z" fill="white"/>
</g>
<defs>
<clipPath id="clip0_1561_25582">
<rect width="18" height="18" fill="white" transform="matrix(-1 0 0 1 18.9336 0)"/>
</clipPath>
</defs>
</svg>
