<svg width="35" height="35" viewBox="0 0 35 35" fill="none" xmlns="http://www.w3.org/2000/svg">
<rect width="35" height="35" rx="6" fill="white" fill-opacity="0.11"/>
<path d="M26.375 16.1875V13.5625H25.0625V16.1875H22.4375V17.5H25.0625V20.125H26.375V17.5H29V16.1875H26.375Z" fill="white"/>
<path d="M14.5625 16.1875V18.8125H18.2756C17.7335 20.3403 16.274 21.4375 14.5625 21.4375C12.3916 21.4375 10.625 19.6709 10.625 17.5C10.625 15.3291 12.3916 13.5625 14.5625 13.5625C15.5036 13.5625 16.4092 13.8998 17.1127 14.5127L18.8373 12.5335C17.6561 11.5045 16.1388 10.9375 14.5625 10.9375C10.9439 10.9375 8 13.8814 8 17.5C8 21.1186 10.9439 24.0625 14.5625 24.0625C18.1811 24.0625 21.125 21.1186 21.125 17.5V16.1875H14.5625Z" fill="white"/>
</svg>
