<svg width="35" height="35" viewBox="0 0 35 35" fill="none" xmlns="http://www.w3.org/2000/svg">
<rect width="35" height="35" rx="6" fill="white" fill-opacity="0.11"/>
<g clip-path="url(#clip0)">
<path d="M21.0277 9.00023C21.6913 8.97731 22.3526 9.08986 22.9713 9.33099C23.5899 9.57212 24.153 9.93678 24.626 10.4027C25.082 10.8758 25.4386 11.4354 25.6746 12.0486C25.9106 12.6618 26.0213 13.316 26.0002 13.9727V21.0277C26.0002 22.5011 25.5185 23.769 24.5977 24.6615C23.6208 25.5633 22.3281 26.0443 20.9994 26.0002H14.001C12.6834 26.041 11.4029 25.5599 10.4381 24.6615C9.95988 24.1825 9.5854 23.6101 9.33802 22.9801C9.09064 22.35 8.97564 21.6758 9.00019 20.9994V13.9727C9.00019 10.9836 10.9835 9.00023 13.9727 9.00023H21.0277ZM21.0631 10.5798H14.001C12.9739 10.5798 12.0885 10.8844 11.5006 11.4652C11.1865 11.7998 10.943 12.1943 10.7848 12.6252C10.6266 13.056 10.5568 13.5143 10.5798 13.9727V20.9994C10.5798 22.0619 10.8844 22.9119 11.5006 23.5352C12.1879 24.1431 13.0843 24.4605 14.001 24.4206H20.9994C21.9161 24.4605 22.8125 24.1431 23.4998 23.5352C23.8298 23.2088 24.0883 22.8173 24.259 22.3856C24.4297 21.954 24.5089 21.4916 24.4914 21.0277V13.9727C24.5143 13.0609 24.1844 12.1753 23.5706 11.5006C23.236 11.1865 22.8415 10.943 22.4107 10.7848C21.9798 10.6266 21.5215 10.5569 21.0631 10.5798ZM17.5002 13.0802C19.9014 13.0802 21.8919 15.0636 21.8919 17.4719C21.8919 18.6366 21.4292 19.7537 20.6056 20.5773C19.782 21.4009 18.6649 21.8636 17.5002 21.8636C16.3355 21.8636 15.2184 21.4009 14.3948 20.5773C13.5712 19.7537 13.1085 18.6366 13.1085 17.4719C13.1085 16.3071 13.5712 15.1901 14.3948 14.3665C15.2184 13.5429 16.3355 13.0802 17.5002 13.0802ZM17.5002 14.6527C16.7555 14.6564 16.0424 14.9539 15.5159 15.4805C14.9893 16.007 14.6918 16.7201 14.6881 17.4648C14.6918 18.2095 14.9893 18.9226 15.5159 19.4491C16.0424 19.9757 16.7555 20.2732 17.5002 20.2769C18.2449 20.2732 18.958 19.9757 19.4845 19.4491C20.0111 18.9226 20.3086 18.2095 20.3123 17.4648C20.3086 16.7201 20.0111 16.007 19.4845 15.4805C18.958 14.9539 18.2449 14.6564 17.5002 14.6527ZM22.0619 11.9823C22.3249 11.9823 22.5771 12.0868 22.7631 12.2728C22.949 12.4587 23.0535 12.711 23.0535 12.974C23.0535 13.237 22.949 13.4892 22.7631 13.6752C22.5771 13.8612 22.3249 13.9656 22.0619 13.9656C21.7989 13.9656 21.5466 13.8612 21.3606 13.6752C21.1747 13.4892 21.0702 13.237 21.0702 12.974C21.0702 12.711 21.1747 12.4587 21.3606 12.2728C21.5466 12.0868 21.7989 11.9823 22.0619 11.9823Z" fill="white"/>
</g>
<defs>
<clipPath id="clip0">
<rect width="17" height="17" fill="white" transform="translate(9 9)"/>
</clipPath>
</defs>
</svg>
