<svg width="35" height="35" viewBox="0 0 35 35" fill="none" xmlns="http://www.w3.org/2000/svg">
<rect width="35" height="35" rx="6" fill="white" fill-opacity="0.11"/>
<g clip-path="url(#clip0)">
<path d="M25.996 25V24.9993H26V19.1313C26 16.2606 25.382 14.0493 22.026 14.0493C20.4126 14.0493 19.33 14.9346 18.888 15.774H18.8413V14.3173H15.6593V24.9993H18.9726V19.71C18.9726 18.3173 19.2366 16.9706 20.9613 16.9706C22.6606 16.9706 22.686 18.56 22.686 19.7993V25H25.996Z" fill="white"/>
<path d="M10.264 14.3181H13.5814V25.0001H10.264V14.3181Z" fill="white"/>
<path d="M11.9213 9C10.8607 9 10 9.86067 10 10.9213C10 11.982 10.8607 12.8607 11.9213 12.8607C12.982 12.8607 13.8427 11.982 13.8427 10.9213C13.842 9.86067 12.9813 9 11.9213 9V9Z" fill="white"/>
</g>
<defs>
<clipPath id="clip0">
<rect width="16" height="16" fill="white" transform="translate(10 9)"/>
</clipPath>
</defs>
</svg>
