<svg width="151" height="26" viewBox="0 0 151 26" fill="none" xmlns="http://www.w3.org/2000/svg">
<path d="M147.384 11.2259C146.866 11.2259 146.392 11.1352 145.958 10.9594C145.523 10.7836 145.15 10.5284 144.827 10.2052C144.509 9.88193 144.259 9.49632 144.086 9.054C143.913 8.61169 143.824 8.12967 143.824 7.6023C143.824 7.10327 143.913 6.6326 144.092 6.19596C144.27 5.75931 144.521 5.3737 144.844 5.0448C145.167 4.71023 145.545 4.45504 145.974 4.26791C146.409 4.08078 146.877 3.98438 147.378 3.98438C147.868 3.98438 148.331 4.07511 148.76 4.2509C149.189 4.42669 149.567 4.68187 149.89 5.00511C150.213 5.32834 150.47 5.71395 150.654 6.15626C150.837 6.59858 150.932 7.08059 150.932 7.60797C150.932 8.13535 150.843 8.61736 150.67 9.05967C150.498 9.50199 150.247 9.88193 149.929 10.2108C149.612 10.5341 149.233 10.7892 148.799 10.965C148.375 11.1408 147.896 11.2259 147.384 11.2259ZM147.384 10.5964C147.913 10.5964 148.398 10.466 148.832 10.2108C149.267 9.95565 149.617 9.60406 149.874 9.15608C150.13 8.70809 150.264 8.19205 150.264 7.60797C150.264 7.194 150.191 6.8084 150.046 6.44547C149.902 6.08254 149.701 5.76498 149.439 5.48712C149.183 5.20925 148.877 4.99376 148.526 4.84065C148.175 4.68754 147.796 4.60815 147.389 4.60815C146.832 4.60815 146.336 4.73858 145.902 4.99376C145.467 5.24895 145.122 5.6062 144.871 6.05419C144.621 6.50218 144.493 7.02388 144.493 7.60797C144.493 8.19205 144.615 8.70809 144.866 9.15608C145.117 9.60406 145.456 9.95565 145.885 10.2108C146.314 10.466 146.816 10.5964 147.384 10.5964ZM146.008 9.76851V5.40773H147.295C147.824 5.40773 148.214 5.52114 148.459 5.75364C148.704 5.98614 148.826 6.30937 148.826 6.72901C148.826 7.0409 148.748 7.28474 148.592 7.4662C148.437 7.64766 148.264 7.77809 148.069 7.85748L149.194 9.76851H148.314L147.395 8.11266H146.793V9.76851H146.008ZM146.793 7.44919H147.278C147.529 7.44919 147.718 7.38681 147.846 7.25638C147.974 7.12596 148.035 6.96151 148.035 6.74602C148.035 6.51352 147.98 6.34907 147.868 6.24132C147.757 6.13358 147.556 6.08254 147.272 6.08254H146.799V7.44919H146.793Z" fill="white"/>
<path d="M32.1793 21.37V23.1506H29.1211V6.83594H32.1793V13.6862C32.792 12.6144 34.0788 11.6674 35.6998 11.6674C38.4014 11.6674 40.507 13.7089 40.507 17.4232V17.5933C40.507 21.3076 38.4404 23.3888 35.6998 23.3888C33.9952 23.3888 32.7474 22.5325 32.1793 21.37ZM37.4099 17.616V17.4459C37.4099 15.1719 36.3125 14.0548 34.7751 14.0548C33.1708 14.0548 32.0734 15.1946 32.0734 17.4459V17.616C32.0734 19.8673 33.1262 20.9674 34.7918 20.9674C36.4796 20.9617 37.4099 19.8049 37.4099 17.616Z" fill="white"/>
<path d="M43.1914 11.9279H46.2496V14.0771C46.9459 12.5744 48.0209 11.7805 49.8146 11.7578V14.6556C47.5586 14.6329 46.2496 15.3871 46.2496 17.5306V23.156H43.1914V11.9279Z" fill="white"/>
<path d="M51.5195 20.034C51.5195 17.4142 53.8814 16.4275 57.2571 16.4275H58.4993V15.9795C58.4993 14.6469 58.0982 13.921 56.7056 13.921C55.5024 13.921 54.9565 14.5448 54.8284 15.5088H51.9373C52.1267 12.8492 54.1933 11.6641 56.895 11.6641C59.5966 11.6641 61.5128 12.7812 61.5128 15.8264V23.1473H58.5382V21.7976C57.9032 22.6993 56.934 23.3854 55.2071 23.3854C53.2074 23.3854 51.5195 22.3987 51.5195 20.034ZM58.4993 19.2231V18.2761H57.3183C55.5469 18.2761 54.5164 18.6617 54.5164 19.8639C54.5164 20.6805 55.001 21.2136 56.1207 21.2136C57.4687 21.2192 58.4993 20.465 58.4993 19.2231Z" fill="white"/>
<path d="M64.7656 11.9249H67.8238V13.7055C68.3697 12.5884 69.5729 11.6641 71.4111 11.6641C73.5836 11.6641 75.121 12.9967 75.121 16.0022V23.1529H72.0629V16.4502C72.0629 14.9247 71.4724 14.1989 70.1244 14.1989C68.8153 14.1989 67.8238 15.0155 67.8238 16.6656V23.1473H64.7656V11.9249Z" fill="white"/>
<path d="M77.6953 17.675V17.5049C77.6953 13.8756 80.2466 11.6641 83.3883 11.6641C85.9395 11.6641 88.3014 12.8039 88.5743 16.0248H85.6833C85.4716 14.7149 84.6917 14.1138 83.4495 14.1138C81.8675 14.1138 80.8147 15.316 80.8147 17.4652V17.6353C80.8147 19.8866 81.8063 21.0491 83.5164 21.0491C84.7419 21.0491 85.7334 20.3176 85.8782 18.8829H88.6412C88.474 21.5425 86.5745 23.3911 83.3716 23.3911C80.1407 23.3854 77.6953 21.344 77.6953 17.675Z" fill="white"/>
<path d="M91.1924 6.83594H94.2505V13.7032C94.7964 12.5861 95.9996 11.6617 97.8379 11.6617C100.01 11.6617 101.548 12.9943 101.548 15.9998V23.1506H98.4896V16.4535C98.4896 14.9281 97.8992 14.2022 96.5511 14.2022C95.2421 14.2022 94.2505 15.0188 94.2505 16.669V23.1506H91.1924V6.83594Z" fill="white"/>
<path d="M107.855 21.37V23.1506H104.797V6.83594H107.855V13.6862C108.468 12.6144 109.755 11.6674 111.376 11.6674C114.077 11.6674 116.183 13.7089 116.183 17.4232V17.5933C116.183 21.3076 114.116 23.3888 111.376 23.3888C109.671 23.3888 108.429 22.5325 107.855 21.37ZM113.086 17.616V17.4459C113.086 15.1719 111.988 14.0548 110.451 14.0548C108.847 14.0548 107.749 15.1946 107.749 17.4459V17.616C107.749 19.8673 108.802 20.9674 110.468 20.9674C112.161 20.9617 113.086 19.8049 113.086 17.616Z" fill="white"/>
<path d="M118.191 17.6523V17.4822C118.191 13.9607 120.704 11.6641 124.012 11.6641C127.321 11.6641 129.811 13.9153 129.811 17.4198V17.59C129.811 21.1342 127.299 23.3854 123.99 23.3854C120.698 23.3854 118.191 21.1512 118.191 17.6523ZM126.709 17.6127V17.4652C126.709 15.316 125.717 14.0288 124.007 14.0288C122.319 14.0288 121.305 15.2763 121.305 17.4198V17.59C121.305 19.7392 122.275 21.0264 124.007 21.0264C125.717 21.0264 126.709 19.7392 126.709 17.6127Z" fill="white"/>
<path d="M135.55 21.37V23.1506H132.492V6.83594H135.55V13.6862C136.163 12.6144 137.45 11.6674 139.071 11.6674C141.772 11.6674 143.878 13.7089 143.878 17.4232V17.5933C143.878 21.3076 141.811 23.3888 139.071 23.3888C137.361 23.3888 136.119 22.5325 135.55 21.37ZM140.781 17.616V17.4459C140.781 15.1719 139.684 14.0548 138.146 14.0548C136.542 14.0548 135.445 15.1946 135.445 17.4459V17.616C135.445 19.8673 136.497 20.9674 138.163 20.9674C139.851 20.9617 140.781 19.8049 140.781 17.616Z" fill="white"/>
<path d="M18.0977 5.03906V25.1645L22.0081 23.6164V5.70254L18.0977 5.03906Z" fill="white"/>
<path d="M0.933594 5.9237V24.2742L16.787 25.1588V5.03906L0.933594 5.9237ZM4.5655 22.4652C3.78007 22.4255 3.16733 21.7677 3.16733 20.9681V20.3727C3.16733 19.5334 3.84135 18.8586 4.66577 18.87C5.46791 18.887 6.11408 19.5504 6.11408 20.3727V20.9681C6.11965 21.8244 5.4122 22.5106 4.5655 22.4652ZM8.7823 22.6297C7.99687 22.59 7.37856 21.9322 7.37856 21.1326V17.112C7.37856 16.2898 8.0303 15.6206 8.83801 15.6093C9.65686 15.6036 10.3253 16.2784 10.3253 17.112V21.1326C10.3253 21.9889 9.62343 22.675 8.7823 22.6297ZM12.9824 22.7771C12.2025 22.7374 11.5898 22.0853 11.5898 21.2914V10.8289C11.5898 10.035 12.197 9.38284 12.9768 9.34314H12.9991C13.8402 9.29778 14.5421 9.97826 14.5421 10.8345L14.5143 21.2914C14.5143 22.142 13.8124 22.8168 12.9824 22.7771Z" fill="white"/>
<path d="M5.33805 6.85023C5.2155 6.43627 5.14866 5.99963 5.14866 5.54597C5.14866 3.09054 7.10387 1.10579 9.51029 1.10579C11.9223 1.10579 13.7884 3.16426 13.7884 5.61969C13.7884 6.07335 13.7215 6.50999 13.599 6.92395L14.8022 6.85023C14.9024 6.4306 14.9582 5.99963 14.9582 5.54597C14.9582 2.48378 12.5183 0 9.51029 0C6.50227 0 4.02344 2.5575 4.02344 5.61969C4.02344 6.06767 4.07914 6.50432 4.17941 6.92395L5.33805 6.85023Z" fill="white"/>
<path d="M19.2422 5.54811C19.2422 2.48592 16.741 0.0078125 13.733 0.0078125C10.725 0.0078125 8.28516 2.49159 8.28516 5.55378C8.28516 5.59348 8.29073 5.63884 8.29073 5.67854L9.45494 5.68421C9.45494 5.64451 9.44937 5.59915 9.44937 5.55945C9.44937 3.10403 11.321 1.10793 13.733 1.10793C16.1394 1.10793 18.0946 3.09269 18.0946 5.54811H19.2422Z" fill="white"/>
</svg>
