<svg width="11" height="6" viewBox="0 0 11 6" fill="none" xmlns="http://www.w3.org/2000/svg">
<path d="M5.54339 5.72217L1.09335 1.26677C0.990341 1.16372 0.933594 1.02616 0.933594 0.879488C0.933594 0.732812 0.990341 0.595252 1.09335 0.492204L1.42099 0.164095C1.63448 -0.0494076 1.98147 -0.0494076 2.19464 0.164095L5.93152 3.9054L9.67255 0.159944C9.77555 0.0568961 9.91287 0 10.0593 0C10.2059 0 10.3432 0.0568961 10.4463 0.159944L10.7738 0.488053C10.8768 0.591182 10.9336 0.72866 10.9336 0.875337C10.9336 1.02201 10.8768 1.15957 10.7738 1.26262L6.31973 5.72217C6.2164 5.82546 6.07843 5.88219 5.93176 5.88187C5.78453 5.88219 5.64664 5.82546 5.54339 5.72217Z" fill="white"/>
</svg>
