<svg width="35" height="35" viewBox="0 0 35 35" fill="none" xmlns="http://www.w3.org/2000/svg">
<rect width="35" height="35" rx="6" fill="white" fill-opacity="0.11"/>
<path d="M12.077 15.457C12.077 14.679 12.213 13.944 12.481 13.258C12.737 12.5917 13.1174 11.9801 13.602 11.456C14.0855 10.9387 14.6388 10.4914 15.246 10.127C15.8689 9.75011 16.5433 9.4658 17.248 9.28296C17.9612 9.09568 18.6956 9.00123 19.433 9.00196C20.572 9.00196 21.632 9.24296 22.615 9.72296C23.5851 10.1942 24.4109 10.9174 25.006 11.817C25.62 12.732 25.925 13.767 25.925 14.921C25.925 15.613 25.857 16.29 25.718 16.952C25.5815 17.6136 25.3645 18.256 25.072 18.865C24.7931 19.4544 24.4285 19.9993 23.99 20.482C23.5492 20.9569 23.0155 21.3361 22.422 21.596C21.7776 21.8784 21.0805 22.0205 20.377 22.013C19.888 22.013 19.4 21.898 18.918 21.667C18.436 21.437 18.09 21.121 17.882 20.716C17.809 20.997 17.709 21.403 17.576 21.934C17.448 22.464 17.362 22.806 17.324 22.961C17.284 23.115 17.21 23.372 17.102 23.728C17.0287 23.9913 16.9348 24.2484 16.821 24.497L16.477 25.171C16.3282 25.4602 16.1619 25.74 15.979 26.009C15.798 26.271 15.574 26.584 15.307 26.944L15.158 26.997L15.059 26.889C14.952 25.756 14.897 25.078 14.897 24.854C14.897 24.191 14.976 23.447 15.132 22.621C15.285 21.796 15.527 20.759 15.852 19.512C16.177 18.266 16.363 17.533 16.413 17.316C16.184 16.849 16.068 16.239 16.068 15.489C16.068 14.89 16.255 14.329 16.63 13.801C17.006 13.275 17.481 13.012 18.057 13.012C18.498 13.012 18.84 13.158 19.085 13.451C19.331 13.743 19.451 14.111 19.451 14.56C19.451 15.036 19.293 15.725 18.975 16.626C18.657 17.528 18.499 18.201 18.499 18.648C18.499 19.101 18.661 19.48 18.985 19.777C19.3047 20.0741 19.7276 20.2351 20.164 20.226C20.56 20.226 20.927 20.136 21.268 19.955C21.6036 19.7793 21.8942 19.5284 22.117 19.222C22.6022 18.5563 22.9481 17.7995 23.134 16.997C23.23 16.575 23.304 16.174 23.35 15.797C23.399 15.418 23.42 15.06 23.42 14.72C23.42 13.473 23.024 12.501 22.237 11.805C21.446 11.109 20.416 10.763 19.149 10.763C17.708 10.763 16.503 11.229 15.538 12.164C14.572 13.096 14.086 14.281 14.086 15.718C14.086 16.035 14.134 16.341 14.225 16.637C14.314 16.932 14.411 17.167 14.516 17.341C14.62 17.512 14.718 17.679 14.807 17.833C14.897 17.987 14.944 18.097 14.944 18.163C14.944 18.365 14.891 18.628 14.784 18.953C14.673 19.278 14.542 19.44 14.384 19.44C14.369 19.44 14.307 19.429 14.199 19.406C13.8249 19.2943 13.4871 19.0855 13.22 18.801C12.9364 18.506 12.7126 18.159 12.561 17.779C12.4097 17.4003 12.292 17.0091 12.209 16.61C12.1193 16.2322 12.075 15.8452 12.077 15.457Z" fill="white"/>
</svg>
