<svg width="80" height="14" viewBox="0 0 80 14" fill="none" xmlns="http://www.w3.org/2000/svg">
<g clip-path="url(#clip0_1561_23355)">
<path d="M13.4582 5.19817L8.56805 4.87667L6.72641 0.25L4.88477 4.87667L0 5.19817L3.74658 8.3794L2.51715 13.2051L6.72641 10.5445L10.9357 13.2051L9.70627 8.3794L13.4582 5.19817Z" fill="white"/>
</g>
<g clip-path="url(#clip1_1561_23355)">
<path d="M29.9162 5.19817L25.0261 4.87667L23.1844 0.25L21.3428 4.87667L16.458 5.19817L20.2046 8.3794L18.9752 13.2051L23.1844 10.5445L27.3937 13.2051L26.1643 8.3794L29.9162 5.19817Z" fill="white"/>
</g>
<g clip-path="url(#clip2_1561_23355)">
<path d="M46.3762 5.19817L41.486 4.87667L39.6444 0.25L37.8027 4.87667L32.918 5.19817L36.6645 8.3794L35.4351 13.2051L39.6444 10.5445L43.8537 13.2051L42.6242 8.3794L46.3762 5.19817Z" fill="white"/>
</g>
<g clip-path="url(#clip3_1561_23355)">
<path d="M62.8322 5.19817L57.9421 4.87667L56.1004 0.25L54.2588 4.87667L49.374 5.19817L53.1206 8.3794L51.8912 13.2051L56.1004 10.5445L60.3097 13.2051L59.0803 8.3794L62.8322 5.19817Z" fill="white"/>
</g>
<g clip-path="url(#clip4_1561_23355)">
<path d="M79.2902 5.19817L74.4001 4.87667L72.5584 0.25L70.7168 4.87667L65.832 5.19817L69.5786 8.3794L68.3492 13.2051L72.5584 10.5445L76.7677 13.2051L75.5383 8.3794L79.2902 5.19817Z" fill="white"/>
</g>
<defs>
<clipPath id="clip0_1561_23355">
<rect width="13.4582" height="13.4582" rx="6.72909" fill="white"/>
</clipPath>
<clipPath id="clip1_1561_23355">
<rect x="16.458" width="13.4582" height="13.4582" rx="6.72909" fill="white"/>
</clipPath>
<clipPath id="clip2_1561_23355">
<rect x="32.918" width="13.4582" height="13.4582" rx="6.72909" fill="white"/>
</clipPath>
<clipPath id="clip3_1561_23355">
<rect x="49.374" width="13.4582" height="13.4582" rx="6.72909" fill="white"/>
</clipPath>
<clipPath id="clip4_1561_23355">
<rect x="65.832" width="13.4582" height="13.4582" rx="6.72909" fill="white"/>
</clipPath>
</defs>
</svg>
