<svg width="9" height="8" viewBox="0 0 9 8" fill="none" xmlns="http://www.w3.org/2000/svg">
<path d="M6.96967 0.972428C7.11054 0.838317 7.298 0.764175 7.49249 0.765646C7.68698 0.767118 7.87329 0.844088 8.01212 0.980316C8.15094 1.11654 8.23141 1.30137 8.23655 1.4958C8.24169 1.69023 8.1711 1.87906 8.03967 2.02243L4.04967 7.01243C3.98106 7.08633 3.89825 7.14563 3.8062 7.18679C3.71415 7.22796 3.61474 7.25014 3.51392 7.252C3.4131 7.25387 3.31294 7.23539 3.21943 7.19766C3.12591 7.15993 3.04097 7.10374 2.96967 7.03243L0.323669 4.38643C0.249983 4.31777 0.19088 4.23497 0.149888 4.14297C0.108896 4.05097 0.0868544 3.95165 0.0850777 3.85095C0.0833009 3.75025 0.101826 3.65022 0.139547 3.55683C0.177268 3.46344 0.233412 3.37861 0.304631 3.30739C0.37585 3.23617 0.460684 3.18003 0.554072 3.14231C0.64746 3.10458 0.747489 3.08606 0.848192 3.08784C0.948895 3.08961 1.04821 3.11166 1.14021 3.15265C1.23221 3.19364 1.31501 3.25274 1.38367 3.32643L3.47767 5.41943L6.95067 0.994428C6.95692 0.986729 6.9636 0.979384 6.97067 0.972428H6.96967Z" fill="white"/>
</svg>
