<svg width="38" height="27" viewBox="0 0 38 27" fill="none" xmlns="http://www.w3.org/2000/svg">
<path d="M31.2566 0C28.8265 0 26.8825 0.942409 25.4245 2.82722C23.9664 4.68063 23.2374 7.14657 23.2374 10.2251C23.2374 14.3717 24.5891 18.0628 27.2926 21.2984C29.9656 24.5026 33.2462 26.4031 37.1343 27V24.5026C34.2182 21.9581 32.7602 18.644 32.7602 14.5602L32.8513 13.0995C36.2838 12.4398 38 10.2879 38 6.64395C38 4.79057 37.3621 3.21989 36.0863 1.93194C34.7802 0.64398 33.1703 0 31.2566 0ZM8.01921 0C5.58915 0 3.64511 0.942409 2.18708 2.82722C0.729044 4.68063 -3.8147e-06 7.14657 -3.8147e-06 10.2251C-3.8147e-06 14.3717 1.35176 18.0628 4.05517 21.2984C6.72826 24.5026 10.0088 26.4031 13.8969 27V24.5026C10.9808 21.9581 9.52281 18.644 9.52281 14.5602L9.61394 13.0995C13.0464 12.4398 14.7626 10.2879 14.7626 6.64395C14.7626 4.79057 14.1247 3.21989 12.8489 1.93194C11.5428 0.64398 9.93287 0 8.01921 0Z" fill="white"/>
</svg>
